<?xml version="1.0" encoding="utf-8"?>
<!-- Generator: Adobe Illustrator 17.1.0, SVG Export Plug-In . SVG Version: 6.00 Build 0)  -->
<!DOCTYPE svg PUBLIC "-//W3C//DTD SVG 1.1//EN" "http://www.w3.org/Graphics/SVG/1.1/DTD/svg11.dtd">
<svg version="1.1" id="Layer_1" xmlns="http://www.w3.org/2000/svg" xmlns:xlink="http://www.w3.org/1999/xlink" x="0px" y="0px"
	 viewBox="0 0 279 110.9" enable-background="new 0 0 279 110.9" xml:space="preserve">
<path fill-rule="evenodd" clip-rule="evenodd" fill="#FFFFFF" d="M49.8,90c11.1,10.9,46.7,10.9,99.7-2.8
	c52.7-13.5,84.9-19.6,106.8-12.1c-19.8-13.8-55.5-12.5-108.6,0.9C94.8,89.4,62.8,94,49.8,90L49.8,90z"/>
<path fill="none" stroke="#FFFFFF" stroke-width="5.4876" stroke-miterlimit="2.6131" d="M49.8,90c11.1,10.9,46.7,10.9,99.7-2.8
	c52.7-13.5,84.9-19.6,106.8-12.1c-19.8-13.8-55.5-12.5-108.6,0.9C94.8,89.4,62.8,94,49.8,90"/>
<path fill-rule="evenodd" clip-rule="evenodd" fill="#FFFFFF" d="M84.1,73.3c-0.8,2.9-2.4,5.9-3.9,7.4l15.3-2.9
	c-1-1.2-0.8-4.5,0-7.8l13.8-52.1l-14.1,5.9c1.2,0.9,1,3.8,0.2,7.1l-8.7,33.1L84.1,73.3L84.1,73.3z"/>
<path fill="none" stroke="#FFFFFF" stroke-width="4.8007" stroke-miterlimit="2.6131" d="M84.1,73.3c-0.8,2.9-2.4,5.9-3.9,7.4
	l15.3-2.9c-1-1.2-0.8-4.5,0-7.8l13.8-52.1l-14.1,5.9c1.2,0.9,1,3.8,0.2,7.1l-8.7,33.1L84.1,73.3"/>
<path fill-rule="evenodd" clip-rule="evenodd" fill="#FFFFFF" d="M125.1,40.2l-8.9,21.5c0,0,1.2-16.8,1.3-20.1c0-1.9,0.7-5.7,1-8.1
	l-12.4,2.3c1,2.4,1.3,5.7,1.3,7.8l-0.8,32.2l10.7-1.9c0,0,16.1-32.7,17.3-34.6c0.7-1.4,2.7-6.1,5-9.7l-12.8,2.4
	C127.6,33.3,126.6,36.7,125.1,40.2L125.1,40.2z"/>
<path fill="none" stroke="#FFFFFF" stroke-width="4.8007" stroke-miterlimit="2.6131" d="M125.1,40.2l-8.9,21.5
	c0,0,1.2-16.8,1.3-20.1c0-1.9,0.7-5.7,1-8.1l-12.4,2.3c1,2.4,1.3,5.7,1.3,7.8l-0.8,32.2l10.7-1.9c0,0,16.1-32.7,17.3-34.6
	c0.7-1.4,2.7-6.1,5-9.7l-12.8,2.4C127.6,33.3,126.6,36.7,125.1,40.2"/>
<path fill-rule="evenodd" clip-rule="evenodd" fill="#FFFFFF" d="M188.9,52.8c1.3-2.6,1.5-6.6,1.5-6.6c-3.4,5.4-9.1,10-12.9,10.7
	c-4.2,0.9-5.4-3.1-4.4-8.8c8.4-2.9,17.3-7.8,20.8-16.3c3.5-8.3-2.5-13-8.4-11.9c-8.9,1.6-19,12.8-22.3,24.9
	c-3.5,12.1,0.8,20.6,9.7,18.9c4.2-0.7,7.7-2.6,10.7-4.8C186,57,187.9,54.7,188.9,52.8L188.9,52.8z M174.3,43
	c2.5-8.5,6.7-15.6,10.2-16.1c2.4-0.3,2.5,2.9-0.7,7.3C181.3,37.6,177.6,40.7,174.3,43L174.3,43L174.3,43z"/>
<path fill="none" stroke="#FFFFFF" stroke-width="4.8007" stroke-miterlimit="2.6131" d="M188.9,52.8c1.3-2.6,1.5-6.6,1.5-6.6
	c-3.4,5.4-9.1,10-12.9,10.7c-4.2,0.9-5.4-3.1-4.4-8.8c8.4-2.9,17.3-7.8,20.8-16.3c3.5-8.3-2.5-13-8.4-11.9
	c-8.9,1.6-19,12.8-22.3,24.9c-3.5,12.1,0.8,20.6,9.7,18.9c4.2-0.7,7.7-2.6,10.7-4.8C186,57,187.9,54.7,188.9,52.8 M174.3,43
	c2.5-8.5,6.7-15.6,10.2-16.1c2.4-0.3,2.5,2.9-0.7,7.3C181.3,37.6,177.6,40.7,174.3,43L174.3,43"/>
<path fill-rule="evenodd" clip-rule="evenodd" fill="#FFFFFF" d="M158.3,58.5c1.3-2.6,1.3-6.6,1.3-6.6c-3.2,5.4-8.9,10-12.9,10.7
	c-4,0.9-5.2-3.1-4.4-8.8c8.4-2.9,17.5-7.8,21-16.3c3.5-8.3-2.5-13-8.6-11.9c-8.9,1.6-18.8,12.8-22.3,24.9c-3.4,12.1,1,20.6,9.9,18.9
	c4.2-0.7,7.7-2.6,10.7-4.8C155.4,62.7,157.3,60.4,158.3,58.5L158.3,58.5z M143.7,48.5c2.5-8.3,6.7-15.4,10.2-15.9
	c2.4-0.3,2.4,2.9-0.7,7.3c-2.7,3.5-6.2,6.6-9.7,8.8C143.7,48.7,143.7,48.7,143.7,48.5L143.7,48.5z"/>
<path fill="none" stroke="#FFFFFF" stroke-width="4.8007" stroke-miterlimit="2.6131" d="M158.3,58.5c1.3-2.6,1.3-6.6,1.3-6.6
	c-3.2,5.4-8.9,10-12.9,10.7c-4,0.9-5.2-3.1-4.4-8.8c8.4-2.9,17.5-7.8,21-16.3c3.5-8.3-2.5-13-8.6-11.9c-8.9,1.6-18.8,12.8-22.3,24.9
	c-3.4,12.1,1,20.6,9.9,18.9c4.2-0.7,7.7-2.6,10.7-4.8C155.4,62.7,157.3,60.4,158.3,58.5 M143.7,48.5c2.5-8.3,6.7-15.4,10.2-15.9
	c2.4-0.3,2.4,2.9-0.7,7.3c-2.7,3.5-6.2,6.6-9.7,8.8L143.7,48.5"/>
<path fill-rule="evenodd" clip-rule="evenodd" fill="#FFFFFF" d="M81.9,72.4c1.2-2.4,1.3-6.4,1.3-6.4c-3.4,5.2-9.1,9.9-12.9,10.7
	c-4,0.7-5.4-3.1-4.4-8.8c8.4-2.9,17.3-7.8,20.8-16.4c3.5-8.3-2.5-13-8.4-11.9c-8.9,1.7-19,12.8-22.3,24.9c-3.5,12.1,0.8,20.6,9.7,19
	c4.2-0.9,7.7-2.6,10.7-5C78.9,76.7,80.7,74.3,81.9,72.4L81.9,72.4z M67.1,62.5c2.7-8.5,6.7-15.6,10.2-16.1c2.5-0.3,2.5,3.1-0.7,7.3
	c-2.5,3.5-6.2,6.8-9.6,9V62.5L67.1,62.5z"/>
<path fill="none" stroke="#FFFFFF" stroke-width="4.8007" stroke-miterlimit="2.6131" d="M81.9,72.4c1.2-2.4,1.3-6.4,1.3-6.4
	c-3.4,5.2-9.1,9.9-12.9,10.7c-4,0.7-5.4-3.1-4.4-8.8c8.4-2.9,17.3-7.8,20.8-16.4c3.5-8.3-2.5-13-8.4-11.9
	c-8.9,1.7-19,12.8-22.3,24.9c-3.5,12.1,0.8,20.6,9.7,19c4.2-0.9,7.7-2.6,10.7-5C78.9,76.7,80.7,74.3,81.9,72.4 M67.1,62.5
	c2.7-8.5,6.7-15.6,10.2-16.1c2.5-0.3,2.5,3.1-0.7,7.3c-2.5,3.5-6.2,6.8-9.6,9V62.5"/>
<path fill-rule="evenodd" clip-rule="evenodd" fill="#FFFFFF" d="M40.4,88.1l20.1-41.2c0,0,9.9-19,22.7-23.5
	c-20.1-4.2-29.6,12.5-31.1,15.8c-1.7,3.5-13.4,32.4-13.4,32.4s0.5-23.2,0.7-27.9c0-2.4,1-7.8,1.5-11.3l-16.5,3.5
	c0.3,2.9,0.8,7.6,0.8,10.6v44.7L40.4,88.1L40.4,88.1z"/>
<path fill="none" stroke="#FFFFFF" stroke-width="4.8007" stroke-miterlimit="2.6131" d="M40.4,88.1l20.1-41.2c0,0,9.9-19,22.7-23.5
	c-20.1-4.2-29.6,12.5-31.1,15.8c-1.7,3.5-13.4,32.4-13.4,32.4s0.7-23.2,0.7-27.9c0-2.4,1-7.8,1.5-11.3l-16.5,3.5
	c0.3,2.9,0.8,7.6,0.8,10.6v44.7L40.4,88.1"/>
<path fill-rule="evenodd" clip-rule="evenodd" fill="#F9C845" d="M84.9,74.5c-0.8,2.9-2.4,5.9-3.9,7.4l15.3-2.8
	c-1-1.4-0.8-4.5,0-7.8l13.8-52.3L96,25c1.2,0.9,1,4,0.2,7.3l-8.7,32.9L84.9,74.5L84.9,74.5z"/>
<path fill-rule="evenodd" clip-rule="evenodd" fill="#F9C845" d="M125.9,41.4L117,63c0,0,1.2-16.8,1.3-20.3c0-1.9,0.7-5.5,1-8.1
	l-12.4,2.4c1,2.4,1.3,5.5,1.3,7.6l-0.8,32.4l10.7-2.1c0,0,16.1-32.5,17.3-34.6c0.7-1.2,2.7-5.9,5-9.5l-12.8,2.2
	C128.4,34.5,127.4,37.9,125.9,41.4L125.9,41.4z"/>
<path fill-rule="evenodd" clip-rule="evenodd" fill="#F9C845" d="M189.9,54c1.2-2.4,1.3-6.4,1.3-6.4c-3.4,5.2-9.1,10-12.9,10.7
	c-4.2,0.7-5.4-3.1-4.4-8.8c8.4-2.9,17.3-7.8,20.8-16.4c3.5-8.3-2.5-13-8.4-11.9c-8.9,1.7-19,12.8-22.3,24.9
	c-3.5,12.1,0.8,20.6,9.7,19c4.2-0.9,7.7-2.6,10.7-5C186.8,58.4,188.7,55.9,189.9,54L189.9,54z M175.1,44.2
	c2.7-8.5,6.7-15.6,10.2-16.1c2.4-0.3,2.5,3.1-0.7,7.3c-2.5,3.5-6.2,6.8-9.6,9V44.2L175.1,44.2z"/>
<path fill-rule="evenodd" clip-rule="evenodd" fill="#F9C845" d="M159.1,59.8c1.3-2.4,1.3-6.4,1.3-6.4c-3.2,5.2-8.9,9.9-12.8,10.7
	c-4.2,0.7-5.4-3.1-4.5-8.8c8.6-2.9,17.5-7.8,21-16.4c3.5-8.3-2.5-13-8.6-11.9c-8.7,1.7-18.8,12.8-22.3,24.9c-3.4,12.1,1,20.6,9.9,19
	c4.2-0.9,7.7-2.6,10.7-5C156.3,63.9,158.1,61.7,159.1,59.8L159.1,59.8z M144.5,49.9c2.5-8.5,6.7-15.6,10.2-16.1
	c2.4-0.3,2.5,3.1-0.7,7.3c-2.7,3.5-6.2,6.8-9.6,9V49.9L144.5,49.9z"/>
<path fill-rule="evenodd" clip-rule="evenodd" fill="#F9C845" d="M82.7,73.8c1.3-2.6,1.3-6.6,1.3-6.6c-3.4,5.4-9.1,10-12.9,10.7
	c-4,0.9-5.4-3.1-4.4-8.8c8.4-2.9,17.3-7.8,21-16.3c3.4-8.3-2.7-13-8.6-11.9c-8.9,1.6-19,12.8-22.3,24.9c-3.5,12.1,0.8,20.6,9.7,18.9
	c4.2-0.7,7.9-2.6,10.9-4.8C79.7,77.9,81.7,75.7,82.7,73.8L82.7,73.8z M68,63.7c2.7-8.3,6.7-15.4,10.2-15.9c2.5-0.3,2.5,2.9-0.7,7.3
	c-2.5,3.5-6,6.6-9.6,8.8C68,63.9,68,63.9,68,63.7L68,63.7z"/>
<path fill-rule="evenodd" clip-rule="evenodd" fill="#F9C845" d="M41.4,89.4l20.1-41.2c0,0,9.9-19,22.7-23.5
	c-20.1-4.2-29.6,12.3-31.1,15.8c-1.5,3.5-13.3,32.4-13.3,32.4s0.5-23.2,0.5-27.9c0-2.6,1.2-8,1.5-11.3l-18.5,3.5
	c2,2.8,2.9,7.6,3,10.6v44.5L41.4,89.4L41.4,89.4z"/>
<polygon fill-rule="evenodd" clip-rule="evenodd" fill="#FFFFFF" points="222.3,17.9 218.1,17.9 220.4,16.7 222.3,17.9 "/>
<polygon fill-rule="evenodd" clip-rule="evenodd" fill="#FFFFFF" points="238.6,19.8 233,23.4 228.3,21.2 235.7,18.7 238.6,19.8 "/>
<polygon fill-rule="evenodd" clip-rule="evenodd" fill="#FFFFFF" points="234.9,19.4 236.9,19.4 236.9,20.6 234.9,20.6 234.9,19.4 
	"/>
<path fill-rule="evenodd" clip-rule="evenodd" fill="#FFFFFF" d="M149.5,77.9c-26.2,6.8-47.9,11.4-64.2,13.7
	c-11.2,1.6-20.2,2.2-27,1.7c8.5,1.4,23.5,0,33.7-1.7c15.5-2.6,34.5-6.8,57.6-12.6c18.6-4.7,35.1-8,49.4-9.3c6-0.7,16.1-1.2,23.3-1.2
	c4.7,0,9.1,0.2,13.2,0.5c-5.8-1-12.2-1.6-19.4-1.4C198.4,67.7,176.1,71.2,149.5,77.9L149.5,77.9z"/>
<path fill="none" stroke="#FFFFFF" stroke-width="3.9092" stroke-miterlimit="2.6131" d="M149.5,77.9c-26.2,6.8-47.9,11.4-64.2,13.7
	c-11.2,1.6-20.2,2.2-27,1.7c8.5,1.4,23.5,0,33.7-1.7c15.5-2.6,34.5-6.8,57.6-12.6c18.6-4.7,35.1-8,49.4-9.3c6-0.7,16.1-1.2,23.3-1.2
	c4.7,0,9.1,0.2,13.2,0.5c-5.8-1-12.2-1.6-19.4-1.4C198.4,67.7,176.1,71.2,149.5,77.9"/>
<path fill-rule="evenodd" clip-rule="evenodd" fill="#F9C845" d="M51.4,91.1c11.1,10.7,46.7,10.7,99.7-2.8
	C204,74.6,237,68.9,258.9,76.5c-19.8-14-56.4-12.8-109.4,0.5C96.4,90.2,64.4,95.1,51.4,91.1L51.4,91.1z"/>
<path fill-rule="evenodd" clip-rule="evenodd" fill="#EE2531" d="M49.8,90c11.1,10.9,46.7,10.9,99.7-2.8
	c52.7-13.5,85.9-19.2,107.8-11.8c-19.8-14-56.4-12.8-109.6,0.5C94.8,89.4,62.8,94,49.8,90L49.8,90z"/>
<path fill-rule="evenodd" clip-rule="evenodd" fill="#EE2531" d="M84.1,73.3c-0.8,2.9-2.4,5.9-3.9,7.4l15.3-2.9
	c-1-1.2-0.8-4.5,0-7.8l13.8-52.1l-14.1,5.9c1.2,0.9,1,3.8,0.2,7.1l-8.7,33.1L84.1,73.3L84.1,73.3z"/>
<g>
	<path fill-rule="evenodd" clip-rule="evenodd" fill="#FFFFFF" d="M222.2,53.3c1.8,2.6,5.2,3.8,9.6,3.1c4.4-0.9,6-2.2,9.7-6.1
		c0,1.4-0.2,2.9-0.2,4.7l11.6-2.1c-1-1.4-0.8-4.7,0-7.8l5-19c2.4-9-3.7-14.7-15.1-12.5c-3.2,0.5-6.4,1.6-9.2,3.1l-2,7.8
		c2.7-2.1,6.9-4,9.4-4.5c4.2-0.9,7.9,0,7.1,3.6c-0.8,3.1-4.7,4.2-11.2,6.6c-9.1,3.5-15.1,7.1-16.1,14.7
		C220,50,222.2,53.3,222.2,53.3L222.2,53.3z M243.2,42.6c-3,4-6.4,6.1-8.4,6.6c-3.4,0.5-5.2-1.7-4.4-4.8c1.2-4.2,3.7-7.3,8.9-9.3
		c1.2-0.5,4.5-1.7,6.7-3.1L243.2,42.6L243.2,42.6z"/>
	<path fill="none" stroke="#FFFFFF" stroke-width="6.1718" stroke-miterlimit="2.6131" d="M222.2,53.3c1.8,2.6,5.2,3.8,9.6,3.1
		c4.4-0.9,6-2.2,9.7-6.1c0,1.4-0.2,2.9-0.2,4.7l11.6-2.1c-1-1.4-0.8-4.7,0-7.8l5-19c2.4-9-3.7-14.7-15.1-12.5
		c-3.2,0.5-6.4,1.6-9.2,3.1l-2,7.8c2.7-2.1,6.9-4,9.4-4.5c4.2-0.9,7.9,0,7.1,3.6c-0.8,3.1-4.7,4.2-11.2,6.6
		c-9.1,3.5-15.1,7.1-16.1,14.7C220,50,222.2,53.3,222.2,53.3 M243.2,42.6c-3,4-6.4,6.1-8.4,6.6c-3.4,0.5-5.2-1.7-4.4-4.8
		c1.2-4.2,3.7-7.3,8.9-9.3c1.2-0.5,4.5-1.7,6.7-3.1L243.2,42.6"/>
	<path fill-rule="evenodd" clip-rule="evenodd" fill="#F9C845" d="M223.1,54.5c1.8,2.8,5.2,4,9.7,3.1c4.4-0.9,5.9-2.3,9.6-6.1
		c0,1.4-0.2,3.1-0.2,4.8l11.8-2.2c-1.2-1.2-0.8-4.5,0-7.8l4.9-19c2.4-8.8-3.5-14.5-15.1-12.5c-3.2,0.7-6.2,1.7-9.2,3.1l-2,7.8
		c2.7-1.9,6.9-4,9.4-4.5c4.2-0.7,7.9,0,7.1,3.6c-0.8,3.3-4.5,4.2-11.3,6.6c-9.1,3.5-13.4,8-15.4,15.4c-0.3,1.2-0.3,2.4-0.3,3.5
		C222,52.9,223.1,54.5,223.1,54.5L223.1,54.5z M244,43.8c-3,4.2-6.2,6.2-8.4,6.6c-3.4,0.7-5.2-1.6-4.4-4.8c1.2-4.2,3.7-7.1,8.9-9.3
		c1.2-0.5,4.5-1.7,6.7-2.9L244,43.8L244,43.8z"/>
	<path fill-rule="evenodd" clip-rule="evenodd" fill="#EE2531" d="M258.3,21.9l0.2,1.1c0.1,1.4,0,3-0.5,4.7l-5,19
		c-0.8,3.1-1,6.4,0,7.8l-11.6,2.1c0-1.7,0.2-3.3,0.2-4.7c-3.7,3.8-5.4,5.2-9.7,6.1c-4.4,0.7-7.7-0.5-9.6-3.1c0,0-1-1.5-1.4-4
		l-0.1-0.8c-0.1-1-0.1-2.2,0-3.5c1-7.6,7.1-11.3,16.1-14.7c6.5-2.4,10.4-3.5,11.2-6.6c0.8-3.6-2.9-4.5-7.1-3.6
		c-2.5,0.5-6.7,2.4-9.4,4.5l2-7.8c2.9-1.6,6-2.6,9.2-3.1C251.6,13.5,257.2,16.4,258.3,21.9L258.3,21.9z M243.2,44.1
		c-3,4-6.4,6.1-8.4,6.6c-3.4,0.5-5.2-1.7-4.4-4.8c1.2-4.2,3.7-7.3,8.9-9.3c1.2-0.5,4.5-1.7,6.7-3.1L243.2,44.1L243.2,44.1z"/>
</g>
<path fill-rule="evenodd" clip-rule="evenodd" fill="#EE2531" d="M125.1,40.2l-8.9,21.5c0,0,1.2-16.8,1.3-20.1c0-1.9,0.7-5.7,1-8.1
	l-12.4,2.3c1,2.4,1.3,5.7,1.3,7.8l-0.8,32.2l10.7-1.9c0,0,16.1-32.7,17.3-34.6c0.7-1.4,2.7-6.1,5-9.7l-12.8,2.4
	C127.6,33.3,126.6,36.7,125.1,40.2L125.1,40.2z"/>
<path fill-rule="evenodd" clip-rule="evenodd" fill="#EE2531" d="M194.7,25.3l0.2,1.5c0.1,1.5-0.2,3.2-1,5.1
	c-3.5,8.5-12.4,13.3-20.8,16.3c-1,5.7,0.2,9.7,4.4,8.8c3.9-0.7,9.6-5.4,12.9-10.7c0,0-0.2,4-1.5,6.6c-1,1.9-2.9,4.2-5.2,6.1
	c-3,2.3-6.5,4.2-10.7,4.8c-5.7,1.1-9.5-1.9-10.6-7.4l-0.3-1.9c-0.2-2.8,0.1-6,1.1-9.6c3.4-12.1,13.4-23.4,22.3-24.9
	C189.6,19.2,193.7,21.2,194.7,25.3L194.7,25.3z M174.3,43c2.5-8.5,6.7-15.6,10.2-16.1c2.4-0.3,2.5,2.9-0.7,7.3
	C181.3,37.6,177.6,40.7,174.3,43L174.3,43L174.3,43z"/>
<path fill-rule="evenodd" clip-rule="evenodd" fill="#EE2531" d="M164.2,31l0.2,1.5c0.1,1.5-0.2,3.2-1,5.1
	c-3.5,8.5-12.6,13.3-21,16.3c-0.8,5.7,0.3,9.7,4.4,8.8c4-0.7,9.7-5.4,12.9-10.7c0,0,0,4-1.3,6.6c-1,1.9-2.9,4.2-5.2,6.1
	c-3,2.2-6.5,4.2-10.7,4.8c-8.9,1.7-13.3-6.8-9.9-18.9c3.5-12.1,13.4-23.4,22.3-24.9C159,24.9,163.2,27,164.2,31L164.2,31z
	 M143.7,48.5c2.5-8.3,6.7-15.4,10.2-15.9c2.4-0.3,2.4,2.9-0.7,7.3c-2.7,3.5-6.2,6.6-9.7,8.8C143.7,48.7,143.7,48.7,143.7,48.5
	L143.7,48.5z"/>
<path fill-rule="evenodd" clip-rule="evenodd" fill="#EE2531" d="M55.2,76.1l-0.3-2.2c-0.2-2.7,0.1-6,1.2-9.5
	C59.3,52.7,68.8,42,77.5,39.7l2.3-0.3c5.4-0.2,10.3,4.4,7,12.1c-3.5,8.7-12.4,13.5-20.8,16.4c-1,5.7,0.3,9.5,4.4,8.8
	c3.9-0.9,9.6-5.5,12.9-10.7c0,0-0.2,4-1.3,6.4c-1.2,1.9-3,4.3-5.4,6.1c-3,2.4-6.5,4.2-10.7,5C60.2,84.4,56.4,81.5,55.2,76.1
	L55.2,76.1z M67.1,62.5c2.7-8.5,6.7-15.6,10.2-16.1c2.5-0.3,2.5,3.1-0.7,7.3c-2.5,3.5-6.2,6.8-9.6,9V62.5L67.1,62.5z"/>
<path fill-rule="evenodd" clip-rule="evenodd" fill="#EE2531" d="M83.1,23.4L83.1,23.4C70.4,28,60.6,46.9,60.6,46.9L40.4,88.1
	l-15.1,2.9V46.4c0-2.9-0.8-7.8-2.9-10.6l18.5-3.5c-0.5,3.5-1.5,8.8-1.5,11.3c-0.2,4.7-0.7,27.9-0.7,27.9s11.8-28.9,13.4-32.4
	C53.7,35.9,63.1,19.3,83.1,23.4L83.1,23.4z"/>
<g>
	<path fill-rule="evenodd" clip-rule="evenodd" fill="#FFFFFF" d="M216.8,24.9l-8.9,21.5c0,0,1.2-16.8,1.3-20.1c0-1.9,0.7-5.7,1-8.1
		l-12.4,2.3c1,2.4,1.3,5.7,1.3,7.8l-0.8,32.2l10.7-1.9c0,0,16.1-32.7,17.3-34.6c0.7-1.4,2.7-6.1,5-9.7l-12.8,2.4
		C219.3,18,218.3,21.4,216.8,24.9L216.8,24.9z"/>
	<path fill="none" stroke="#FFFFFF" stroke-width="4.8007" stroke-miterlimit="2.6131" d="M216.8,24.9l-8.9,21.5
		c0,0,1.2-16.8,1.3-20.1c0-1.9,0.7-5.7,1-8.1l-12.4,2.3c1,2.4,1.3,5.7,1.3,7.8l-0.8,32.2l10.7-1.9c0,0,16.1-32.7,17.3-34.6
		c0.7-1.4,2.7-6.1,5-9.7l-12.8,2.4C219.3,18,218.3,21.4,216.8,24.9"/>
	<path fill-rule="evenodd" clip-rule="evenodd" fill="#F9C845" d="M217.6,26.1l-8.9,21.6c0,0,1.2-16.8,1.3-20.3c0-1.9,0.7-5.5,1-8.1
		l-12.4,2.4c1,2.4,1.3,5.5,1.3,7.6l-0.8,32.4l10.7-2.1c0,0,16.1-32.5,17.3-34.6c0.7-1.2,2.7-5.9,5-9.5l-12.8,2.2
		C220.1,19.2,219.1,22.7,217.6,26.1L217.6,26.1z"/>
	<path fill-rule="evenodd" clip-rule="evenodd" fill="#EE2531" d="M216.8,24.9l-8.9,21.5c0,0,1.2-16.8,1.3-20.1c0-1.9,0.7-5.7,1-8.1
		l-12.4,2.3c1,2.4,1.3,5.7,1.3,7.8l-0.8,32.2l10.7-1.9c0,0,16.1-32.7,17.3-34.6c0.7-1.4,2.7-6.1,5-9.7l-12.8,2.4
		C219.3,18,218.3,21.4,216.8,24.9L216.8,24.9z"/>
</g>
</svg>
